<svg xmlns="http://www.w3.org/2000/svg" viewBox="0 0 512 512">
    <path id="bpmn-model" d="M477.89,221.379a32,32,0,0,0,32-32v-132a32,32,0,0,0-32-32h-128a32,32,0,0,0-32,32v44h-118v-44c1.93-19.236-2.6-32.271-29-32h-130c-22.622.2-34.6,13.107-32,32v132c1.521,28.81,12.255,33.479,32,32h130c24.44.881,27.859-6.386,29-26v-50h38c2.925,0,.14,240.264.14,240.264-.086,6.3,3.244,9.938,10.41,10.053h69.45v51c.7,15.26,15.009,25.207,32,26h128c18.345-.148,31.457-10.88,32-26v-140c-.74-17.919-13.006-30.349-32-30h-128c-17.713-.179-31.774,10.319-32,30v49h-38V145.379h38v50c2.542,20.467,4.193,25.485,32,26Zm-118-156h110v116h-110Zm-311,0h112v116h-112Zm421,250.317v117h-110v-117Z" transform="translate(-8.54 -25.375)"/>
</svg>
